<svg xmlns="http://www.w3.org/2000/svg" width="110" height="38" viewBox="0 0 110 38">
  <g id="bau-logo-white" transform="translate(-113.4 -537.147)">
    <rect id="Rectangle_68" data-name="Rectangle 68" width="110" height="38" transform="translate(113.4 537.147)" opacity="0"/>
    <g id="Logo" transform="translate(-0.308 0.224)">
      <g id="Logo-2" data-name="Logo" transform="translate(114.708 537.674)">
        <path id="Path_5312" data-name="Path 5312" d="M107.457,549.246a1.335,1.335,0,0,1-.006-1.9l16.927-16.9a1.351,1.351,0,0,1,1.9,0l17.032,16.9a1.336,1.336,0,0,1,.006,1.9l-16.927,16.9a1.351,1.351,0,0,1-1.9,0Z" transform="translate(-107.059 -530.062)" fill="#fff" fill-rule="evenodd"/>
        <path id="Path_5313" data-name="Path 5313" d="M139,632.661h20.607l-9.4,9.375a1.277,1.277,0,0,1-1.8,0Z" transform="translate(-130.972 -606.873)" fill="#00a1ed"/>
        <path id="Path_5314" data-name="Path 5314" d="M111.326,551.993a1.269,1.269,0,0,1,0-1.8l1.184-1.181L118,558.642ZM112.52,549l4.244-4.235,3.816,11.715Zm4.255-4.246,4.921-4.911,1.864,15.317Zm18.129-4.895,4.919,4.9-6.781,10.4Zm4.932,4.914L144.078,549l-8.055,7.48Zm4.254,4.239,1.184,1.18a1.269,1.269,0,0,1,0,1.8l-6.666,6.652Zm-22.383-9.18,5.679-5.668a1.271,1.271,0,0,1,.9-.372l-1.609,20.776Zm6.607-6.04a1.272,1.272,0,0,1,.875.372l5.7,5.681-4.967,14.723Z" transform="translate(-109.974 -532.857)" fill="#004a9c"/>
      </g>
      <g id="Type" transform="translate(155.028 540.965)">
        <path id="Union_1" data-name="Union 1" d="M16.982,5.147c0-.032.038-.05.112-.056a.679.679,0,0,0,.3-.1.221.221,0,0,0,.126-.2c0-.152-.139-.26-.416-.32-.057-.011-.086-.025-.086-.039s.029-.032.086-.069l.325-.216a1.479,1.479,0,0,1-.532-.112.143.143,0,0,1-.082-.147q0-.234.021-.567c.006-.074.023-.112.052-.112s.043.024.043.074a.781.781,0,0,0,.039.221.578.578,0,0,0,.618.436.6.6,0,0,0,.437-.16.458.458,0,0,0,.143-.333.913.913,0,0,0-.425-.692l-.2-.156a1.364,1.364,0,0,1-.64-1.025.73.73,0,0,1,.277-.589,1.1,1.1,0,0,1,.723-.229,2.308,2.308,0,0,1,.576.074c.039.011.06.029.06.051t-.009.156c-.006.107-.009.228-.009.364,0,.087-.016.13-.048.13s-.043-.026-.043-.078a.465.465,0,0,0-.112-.286.569.569,0,0,0-.472-.212.539.539,0,0,0-.377.126.4.4,0,0,0-.138.32.5.5,0,0,0,.1.289,1.871,1.871,0,0,0,.364.333l.121.091a2.271,2.271,0,0,1,.55.545,1,1,0,0,1,.16.558.847.847,0,0,1-.407.753,1.182,1.182,0,0,1-.523.168l-.338.225v.009q.558.048.558.347a.339.339,0,0,1-.138.26.71.71,0,0,1-.267.142,1.657,1.657,0,0,1-.455.061C17.007,5.19,16.982,5.176,16.982,5.147Zm-5.567,0c0-.032.038-.05.112-.056a.679.679,0,0,0,.3-.1.221.221,0,0,0,.126-.2c0-.152-.138-.26-.416-.32-.057-.011-.087-.025-.087-.039s.029-.032.087-.069l.376-.252a1.933,1.933,0,0,1-.995-.432,1.616,1.616,0,0,1-.536-1.28,1.528,1.528,0,0,1,.5-1.181A1.954,1.954,0,0,1,12.259.765a4.759,4.759,0,0,1,.627.043q.152.03.433.074c.043,0,.065.02.065.052a.663.663,0,0,1-.009.073c0,.052-.009.107-.013.165q0,.19-.013.468c-.006.065-.023.1-.052.1s-.043-.032-.043-.1a.577.577,0,0,0-.169-.4.817.817,0,0,0-.342-.191,1.778,1.778,0,0,0-.536-.077,1.163,1.163,0,0,0-.813.268,1.445,1.445,0,0,0-.4,1.12,1.521,1.521,0,0,0,.462,1.154,1.271,1.271,0,0,0,.9.386,2.057,2.057,0,0,0,.428-.035.659.659,0,0,0,.364-.208.592.592,0,0,0,.147-.286c.011-.057.03-.086.056-.086s.039.021.039.065a2.433,2.433,0,0,1-.031.251,2.272,2.272,0,0,1-.064.32.183.183,0,0,1-.112.13,2.233,2.233,0,0,1-.779.1q-.14,0-.272-.01l-.342.227v.009q.558.048.558.347a.339.339,0,0,1-.138.26.708.708,0,0,1-.268.142,1.652,1.652,0,0,1-.455.061C11.44,5.19,11.415,5.176,11.415,5.147Zm51.3-1.1a.143.143,0,0,1-.082-.147q0-.234.021-.567c.006-.074.023-.112.052-.112s.043.024.043.074a.781.781,0,0,0,.039.221.578.578,0,0,0,.618.436.6.6,0,0,0,.437-.16.457.457,0,0,0,.143-.333.91.91,0,0,0-.424-.692l-.2-.156a1.364,1.364,0,0,1-.64-1.025A.73.73,0,0,1,63,.994,1.1,1.1,0,0,1,63.72.765a2.307,2.307,0,0,1,.575.074c.04.011.06.029.06.051,0,0,0,.052-.009.156s-.009.228-.009.364q0,.13-.047.13c-.029,0-.044-.026-.044-.078a.463.463,0,0,0-.113-.286.567.567,0,0,0-.471-.212.54.54,0,0,0-.377.126.4.4,0,0,0-.138.32.5.5,0,0,0,.1.289,1.85,1.85,0,0,0,.362.333l.121.091a2.27,2.27,0,0,1,.55.545,1,1,0,0,1,.16.558.847.847,0,0,1-.407.753,1.24,1.24,0,0,1-.687.177A1.576,1.576,0,0,1,62.711,4.044Zm-10.45,0a.143.143,0,0,1-.082-.147q0-.234.021-.567c.006-.074.023-.112.052-.112s.044.024.044.074a.781.781,0,0,0,.039.221.578.578,0,0,0,.618.436.6.6,0,0,0,.437-.16.457.457,0,0,0,.143-.333.912.912,0,0,0-.424-.692l-.2-.156a1.364,1.364,0,0,1-.64-1.025.732.732,0,0,1,.277-.589,1.1,1.1,0,0,1,.723-.229,2.311,2.311,0,0,1,.576.074c.04.011.06.029.06.051t-.008.156c-.006.107-.009.228-.009.364,0,.087-.016.13-.048.13s-.043-.026-.043-.078a.466.466,0,0,0-.112-.286.571.571,0,0,0-.472-.212.54.54,0,0,0-.376.126.4.4,0,0,0-.138.32.5.5,0,0,0,.1.289,1.869,1.869,0,0,0,.364.333l.121.091a2.291,2.291,0,0,1,.549.545,1,1,0,0,1,.16.558.848.848,0,0,1-.407.753,1.24,1.24,0,0,1-.688.177A1.57,1.57,0,0,1,52.261,4.044Zm-8.24.056c-.014-.026-.045-.1-.091-.208l-1.09-2.643a.7.7,0,0,0-.143-.238.441.441,0,0,0-.186-.091A.679.679,0,0,0,42.342.9c-.035,0-.052-.013-.052-.039s.038-.038.113-.038.2,0,.342.008l.286,0,.225,0c.124,0,.226-.008.307-.008s.1.013.1.038S43.64.9,43.6.9a.318.318,0,0,0-.169.03.1.1,0,0,0-.043.091,1.365,1.365,0,0,0,.1.333l.745,1.964h.017q.371-.934.852-2.154a.552.552,0,0,0,.039-.16.077.077,0,0,0-.061-.082A.508.508,0,0,0,44.907.9c-.049,0-.074-.011-.074-.035s.04-.043.122-.043.182,0,.285.008l.169,0,.182,0c.1,0,.176-.008.225-.008s.092.013.092.038S45.884.9,45.837.9a.382.382,0,0,0-.211.052.974.974,0,0,0-.242.389q-.138.321-.515,1.172l-.575,1.32q-.1.212-.117.255c-.026.043-.053.065-.082.065S44.044,4.138,44.021,4.1Zm-10.45-.242a1.476,1.476,0,0,1-.385-1.147V2.081c0-.517,0-.823-.008-.918A.237.237,0,0,0,32.99.916.857.857,0,0,0,32.822.9c-.049,0-.073-.013-.073-.039s.031-.038.1-.038c.084,0,.2,0,.35.008l.281,0,.247,0c.135,0,.23-.008.286-.008s.1.013.1.038S34.079.9,34.033.9a.744.744,0,0,0-.125.013c-.1.018-.152.1-.16.247-.006.1-.009.4-.009.918v.6a1.333,1.333,0,0,0,.337,1.064.825.825,0,0,0,.541.177.809.809,0,0,0,.6-.233.854.854,0,0,0,.217-.459,4,4,0,0,0,.034-.614v-.54q0-.775-.009-.918A.237.237,0,0,0,35.27.916.78.78,0,0,0,35.114.9c-.049,0-.073-.013-.073-.039s.03-.038.091-.038c.127,0,.292,0,.5.013l.2,0c.127,0,.223-.008.289-.008s.091.013.091.038S36.187.9,36.135.9a.752.752,0,0,0-.126.013c-.1.018-.151.1-.16.247q-.009.143-.009.918v.462a2.952,2.952,0,0,1-.069.713,1.109,1.109,0,0,1-.341.589,1.335,1.335,0,0,1-.9.311A1.384,1.384,0,0,1,33.571,3.858Zm6.042.194Q39.2,3.642,38.337,2.78q-.294-.289-.662-.687-.185-.2-.367-.4h-.013l.048,1.816q.013.433.151.48c.008,0,.065.011.169.022.087.012.13.026.13.043s-.033.043-.1.043c-.11,0-.223,0-.342-.009l-.195,0-.164,0c-.113.006-.214.009-.3.009-.063,0-.1-.014-.1-.043s.038-.033.113-.039L36.857,4a.167.167,0,0,0,.109-.138,2.583,2.583,0,0,0,.026-.4L37.03.9c0-.1.022-.147.057-.147s.077.045.16.134q.354.381,1.341,1.388.44.459.952.986h.021l-.043-1.942A1.534,1.534,0,0,0,39.5,1.1.231.231,0,0,0,39.37.93.677.677,0,0,0,39.141.9c-.046,0-.069-.013-.069-.039s.038-.038.112-.038.19,0,.311.008l.212,0,.151,0c.1,0,.189-.008.273-.008.067,0,.1.013.1.038S40.206.9,40.154.9c-.145,0-.233.048-.265.143a1.087,1.087,0,0,0-.025.238l-.048,2.729c0,.089-.022.134-.057.134S39.68,4.116,39.613,4.053ZM60.882,4.1q-.372-.013-.45-.013l-.247,0c-.135.006-.235.009-.3.009s-.087-.014-.087-.043.032-.033.095-.039q.065-.008.13-.013.1-.022.126-.238.021-.168.022-.921V2.081q0-.775-.009-.918a.236.236,0,0,0-.186-.247A.863.863,0,0,0,59.809.9c-.049,0-.074-.013-.074-.039s.032-.038.1-.038c.086,0,.2,0,.35.008l.272,0q1.025,0,1.081,0a1.174,1.174,0,0,0,.186-.026l.07-.017c.017,0,.026.013.026.039,0,0,0,.028-.013.077s-.016.126-.022.2-.009.173-.021.286c-.006.031-.02.048-.043.048s-.033-.016-.039-.048-.006-.062-.008-.091a.309.309,0,0,0-.017-.077q-.052-.126-.29-.156c-.1-.011-.3-.018-.614-.018-.021,0-.03.015-.03.044V2.193c0,.032.01.048.03.048q.593,0,.692-.009a.753.753,0,0,0,.112-.013.192.192,0,0,0,.1-.052c.035-.038.058-.057.069-.057s.031.011.031.035c0,0,0,.032-.013.087s-.016.143-.021.229c-.011.165-.017.261-.017.29,0,.055-.014.082-.039.082s-.039-.015-.039-.043a.988.988,0,0,0-.018-.152c-.023-.1-.1-.154-.242-.168q-.121-.014-.614-.013c-.018,0-.026.015-.026.043V3.512a.389.389,0,0,0,.1.3.876.876,0,0,0,.42.065,1.083,1.083,0,0,0,.406-.052.393.393,0,0,0,.195-.321c.009-.043.024-.065.048-.065s.035.026.035.077a1.9,1.9,0,0,1-.056.48.139.139,0,0,1-.061.1.54.54,0,0,1-.173.017Q61.254,4.109,60.882,4.1Zm-13.76,0c-.248-.009-.4-.013-.45-.013l-.247,0c-.135.006-.235.009-.3.009s-.087-.014-.087-.043.032-.033.1-.039c.043-.006.086-.01.129-.013.067-.015.109-.094.126-.238q.021-.168.021-.921V2.081q0-.775-.009-.918a.237.237,0,0,0-.186-.247A.855.855,0,0,0,46.05.9c-.05,0-.074-.013-.074-.039s.032-.038.1-.038c.087,0,.2,0,.35.008l.272,0c.684,0,1.044,0,1.082,0a1.185,1.185,0,0,0,.186-.026L48.03.791c.018,0,.026.013.026.039,0,0,0,.028-.013.077s-.015.126-.021.2-.01.173-.021.286c-.006.031-.021.048-.043.048s-.033-.016-.039-.048-.006-.062-.009-.091a.314.314,0,0,0-.018-.077c-.034-.084-.131-.135-.29-.156-.1-.011-.3-.018-.614-.018-.02,0-.03.015-.03.044V2.193c0,.032.01.048.03.048.395,0,.626,0,.692-.009a.765.765,0,0,0,.113-.013.191.191,0,0,0,.095-.052c.035-.038.058-.057.07-.057s.03.011.03.035c0,0,0,.032-.013.087s-.016.143-.022.229c-.011.165-.017.261-.017.29,0,.055-.013.082-.039.082s-.038-.015-.038-.043a1.087,1.087,0,0,0-.018-.152c-.023-.1-.1-.154-.242-.168q-.121-.014-.615-.013c-.017,0-.025.015-.025.043V3.512a.387.387,0,0,0,.1.3.874.874,0,0,0,.42.065,1.086,1.086,0,0,0,.406-.052.393.393,0,0,0,.194-.321c.009-.043.025-.065.048-.065s.035.026.035.077A1.935,1.935,0,0,1,48.1,4q-.022.079-.062.1a.531.531,0,0,1-.172.017Q47.494,4.109,47.122,4.1Zm-26.714,0q-.372-.013-.45-.013l-.247,0c-.135.006-.235.009-.3.009s-.086-.014-.086-.043.032-.033.1-.039q.065-.008.13-.013c.067-.015.108-.094.126-.238q.021-.168.021-.921V2.081c0-.517,0-.823-.008-.918A.237.237,0,0,0,19.5.916.863.863,0,0,0,19.335.9c-.049,0-.074-.013-.074-.039s.032-.038.1-.038c.087,0,.2,0,.35.008l.272,0q1.025,0,1.081,0a1.174,1.174,0,0,0,.186-.026l.07-.017c.017,0,.026.013.026.039,0,0,0,.028-.013.077s-.016.126-.021.2-.01.173-.022.286c-.006.031-.021.048-.043.048s-.033-.016-.038-.048-.006-.062-.009-.091a.311.311,0,0,0-.017-.077q-.052-.126-.29-.156c-.1-.011-.3-.018-.615-.018-.02,0-.03.015-.03.044V2.193c0,.032.01.048.03.048.4,0,.626,0,.693-.009a.754.754,0,0,0,.112-.013.191.191,0,0,0,.095-.052c.035-.038.058-.057.07-.057s.03.011.03.035c0,0,0,.032-.013.087s-.016.143-.021.229c-.011.165-.018.261-.018.29,0,.055-.013.082-.039.082s-.038-.015-.038-.043a.988.988,0,0,0-.018-.152c-.023-.1-.1-.154-.242-.168q-.121-.014-.614-.013c-.018,0-.026.015-.026.043V3.512a.387.387,0,0,0,.1.3.87.87,0,0,0,.419.065,1.081,1.081,0,0,0,.406-.052.392.392,0,0,0,.2-.321c.008-.043.024-.065.047-.065s.035.026.035.077A1.931,1.931,0,0,1,21.39,4c-.015.052-.035.084-.061.1a.537.537,0,0,1-.173.017C20.9,4.109,20.656,4.1,20.408,4.1Zm-5.338,0c-.248-.009-.4-.013-.45-.013l-.246,0c-.135.006-.235.009-.3.009s-.087-.014-.087-.043.032-.033.1-.039q.065-.008.13-.013.1-.022.126-.238.021-.168.022-.921V2.081q0-.775-.009-.918a.236.236,0,0,0-.186-.247A.858.858,0,0,0,14,.9c-.049,0-.073-.013-.073-.039s.031-.038.095-.038c.087,0,.2,0,.35.008l.272,0q1.025,0,1.081,0a1.184,1.184,0,0,0,.186-.026l.07-.017C16,.791,16,.8,16,.83c0,0,0,.028-.013.077s-.016.126-.021.2-.01.173-.022.286c-.006.031-.02.048-.043.048s-.033-.016-.039-.048-.006-.062-.009-.091a.309.309,0,0,0-.017-.077q-.052-.126-.29-.156c-.1-.011-.3-.018-.614-.018-.021,0-.03.015-.03.044V2.193c0,.032.01.048.03.048q.593,0,.691-.009a.764.764,0,0,0,.113-.013.194.194,0,0,0,.1-.052c.035-.038.057-.057.069-.057s.03.011.03.035c0,0,0,.032-.013.087s-.016.143-.022.229c-.011.165-.017.261-.017.29,0,.055-.013.082-.039.082s-.039-.015-.039-.043a1.057,1.057,0,0,0-.017-.152c-.023-.1-.1-.154-.243-.168-.08-.009-.285-.013-.613-.013-.018,0-.026.015-.026.043V3.512a.389.389,0,0,0,.1.3.874.874,0,0,0,.42.065,1.088,1.088,0,0,0,.407-.052.4.4,0,0,0,.194-.321c.009-.043.025-.065.048-.065s.035.026.035.077a1.9,1.9,0,0,1-.056.48c-.014.052-.035.084-.061.1a.537.537,0,0,1-.173.017Q15.442,4.109,15.07,4.1ZM1.021,4.1C.851,4.087.742,4.083.7,4.083l-.247,0c-.135.006-.235.009-.3.009S.065,4.082.065,4.053s.032-.033.1-.039C.2,4.008.247,4,.29,4q.1-.022.126-.238.021-.168.021-.921V2.08q0-.774-.009-.917A.237.237,0,0,0,.242.916.868.868,0,0,0,.074.9C.024.9,0,.891,0,.864S.032.826.1.826c.089,0,.2,0,.346.008l.242,0c.076,0,.17,0,.286,0s.2-.008.242-.008a1.018,1.018,0,0,1,.752.238.557.557,0,0,1,.169.411.989.989,0,0,1-.441.757,1.322,1.322,0,0,1,.528.324.846.846,0,0,1,.26.61.859.859,0,0,1-.277.645,1.239,1.239,0,0,1-.879.3C1.292,4.109,1.191,4.1,1.021,4.1ZM.956,2.422V3.447a1.007,1.007,0,0,0,.026.294.194.194,0,0,0,.126.122.839.839,0,0,0,.316.052.521.521,0,0,0,.333-.108.527.527,0,0,0,.191-.445.983.983,0,0,0-.42-.861.7.7,0,0,0-.359-.1c-.055,0-.117,0-.186,0C.964,2.392.956,2.4.956,2.422Zm.018-1.4a.09.09,0,0,0-.018.065V2.154a.043.043,0,0,0,.03.048,1.071,1.071,0,0,0,.2.013A.487.487,0,0,0,1.5,2.132a.562.562,0,0,0,.177-.459.784.784,0,0,0-.13-.445A.479.479,0,0,0,1.137,1,.377.377,0,0,0,.974,1.02ZM66.041,4.087l-.272,0-.247,0c-.135.006-.235.009-.3.009s-.086-.014-.086-.043.032-.033.095-.039q.065-.008.13-.013c.07-.015.111-.085.126-.212s.021-.445.021-.947V2.08q0-.774-.009-.917c-.008-.138-.058-.219-.147-.242A.673.673,0,0,0,65.2.9c-.049,0-.073-.014-.073-.043s.035-.034.1-.034.156,0,.294.008l.268,0,.243,0c.13,0,.225-.008.285-.008s.091.011.091.034S66.392.9,66.349.9a.782.782,0,0,0-.134.013c-.1.018-.152.1-.16.247q-.009.143-.009.917v.762q0,.774.018.947c.011.127.069.2.173.212a1.672,1.672,0,0,0,.221.017c.045,0,.068.011.068.035s-.027.043-.082.043C66.335,4.1,66.2,4.093,66.041,4.087Zm-7.872,0-.277,0-.247,0c-.135.006-.235.009-.3.009s-.087-.014-.087-.043.032-.033.1-.039c.043-.006.086-.01.129-.013q.1-.022.126-.238.022-.19.022-.921V1.068l-.645.018c-.228,0-.368.047-.42.125a.472.472,0,0,0-.073.152c-.009.035-.025.052-.048.052s-.039-.023-.039-.069a2.778,2.778,0,0,1,.091-.5c.014-.055.031-.082.052-.082a.259.259,0,0,1,.069.026.412.412,0,0,0,.117.026c.155.015.3.022.433.022h1.713a1.786,1.786,0,0,0,.3-.022A.957.957,0,0,0,59.3.795c.023,0,.034.032.034.091,0,.029,0,.109-.009.242s-.006.22-.009.265-.015.065-.035.065-.042-.029-.048-.087l0-.047c-.015-.153-.185-.233-.511-.243l-.545-.013V2.841c0,.49.007.8.021.925.018.142.075.219.17.234a1.661,1.661,0,0,0,.22.017c.047,0,.069.011.069.035s-.027.043-.082.043C58.462,4.1,58.328,4.093,58.169,4.087Zm-2.578,0-.273,0-.247,0c-.135.006-.235.009-.3.009s-.087-.014-.087-.043.031-.033.095-.039q.065-.008.13-.013c.069-.015.111-.085.126-.212s.021-.445.021-.947V2.08q0-.774-.009-.917c-.009-.138-.057-.219-.147-.242A.673.673,0,0,0,54.752.9C54.7.9,54.679.889,54.679.86s.034-.034.1-.034.155,0,.294.008l.268,0,.242,0c.13,0,.225-.008.285-.008s.092.011.092.034S55.942.9,55.9.9a.789.789,0,0,0-.134.013c-.1.018-.152.1-.16.247q-.009.143-.009.917v.762q0,.774.017.947c.011.127.07.2.173.212a1.671,1.671,0,0,0,.221.017c.045,0,.069.011.069.035s-.028.043-.082.043C55.884,4.1,55.75,4.093,55.592,4.087ZM51.672,4.1a1,1,0,0,1-.462-.082,2.293,2.293,0,0,1-.593-.636q-.186-.264-.428-.6a.1.1,0,0,0-.077-.03l-.377-.008a.03.03,0,0,0-.035.034v.061q0,.735.021.925c.018.148.074.227.169.238a1.693,1.693,0,0,0,.211.017c.035,0,.052.011.052.035s-.029.043-.087.043q-.147,0-.389-.009l-.247,0-.229,0c-.133.006-.232.009-.3.009s-.086-.014-.086-.043.031-.033.1-.039q.064-.008.13-.013.1-.022.126-.238.021-.168.021-.921V2.08q0-.774-.008-.917a.237.237,0,0,0-.187-.247A.859.859,0,0,0,48.826.9c-.049,0-.073-.013-.073-.039s.031-.038.1-.038c.089,0,.206,0,.35.008l.243,0,.307,0c.159,0,.259-.008.3-.008a1.41,1.41,0,0,1,.8.186.624.624,0,0,1,.191.221.714.714,0,0,1,.1.372,1.282,1.282,0,0,1-.571.969q.471.6.519.649c.167.211.307.373.42.489a.933.933,0,0,0,.484.294l.1.008c.049.006.074.019.074.039s-.028.043-.082.043ZM49.722,1.054a.057.057,0,0,0-.021.052V2.422c0,.043.013.069.039.078a1,1,0,0,0,.328.043.525.525,0,0,0,.307-.073.753.753,0,0,0,.256-.65.812.812,0,0,0-.234-.627.628.628,0,0,0-.428-.165A.648.648,0,0,0,49.722,1.054ZM41.771,4.087l-.272,0-.246,0c-.135.006-.235.009-.3.009s-.087-.014-.087-.043.031-.033.095-.039q.065-.008.13-.013c.07-.015.111-.085.126-.212s.021-.445.021-.947V2.08q0-.774-.008-.917c-.008-.138-.057-.219-.147-.242A.667.667,0,0,0,40.933.9c-.049,0-.074-.014-.074-.043s.035-.034.1-.034.156,0,.294.008l.268,0,.243,0c.13,0,.225-.008.285-.008s.091.011.091.034S42.122.9,42.079.9a.789.789,0,0,0-.134.013c-.1.018-.151.1-.16.247q-.009.143-.008.917v.762q0,.774.018.947c.011.127.069.2.172.212a1.669,1.669,0,0,0,.221.017c.046,0,.069.011.069.035s-.028.043-.082.043C42.064,4.1,41.93,4.093,41.771,4.087ZM31.2,4.1a1,1,0,0,1-.463-.082,2.3,2.3,0,0,1-.593-.636q-.185-.264-.428-.6a.1.1,0,0,0-.077-.03l-.376-.008a.03.03,0,0,0-.034.034v.061c0,.49.006.8.021.925q.026.221.168.238a1.712,1.712,0,0,0,.213.017c.034,0,.052.011.052.035s-.029.043-.087.043q-.147,0-.389-.009l-.247,0-.229,0c-.133.006-.232.009-.3.009s-.086-.014-.086-.043.032-.033.095-.039c.043-.006.087-.01.13-.013.066-.015.109-.094.126-.238q.022-.168.022-.921V2.08c0-.516,0-.822-.009-.917a.237.237,0,0,0-.187-.247A.868.868,0,0,0,28.358.9c-.049,0-.073-.013-.073-.039s.031-.038.095-.038c.089,0,.206,0,.35.008l.242,0,.307,0c.158,0,.26-.008.3-.008a1.41,1.41,0,0,1,.8.186.63.63,0,0,1,.19.221.707.707,0,0,1,.1.372,1.283,1.283,0,0,1-.572.969q.472.6.519.649c.167.211.308.373.42.489a.938.938,0,0,0,.485.294l.1.008c.049.006.073.019.073.039s-.027.043-.082.043ZM29.253,1.054a.056.056,0,0,0-.021.052V2.422c0,.043.013.069.038.078a1,1,0,0,0,.329.043.524.524,0,0,0,.307-.073.753.753,0,0,0,.255-.65.812.812,0,0,0-.234-.627.623.623,0,0,0-.428-.165A.646.646,0,0,0,29.253,1.054Zm-2,3.033-.272,0-.247,0c-.135.006-.235.009-.3.009s-.087-.014-.087-.043.032-.033.095-.039q.065-.008.13-.013c.069-.015.111-.085.126-.212s.022-.445.022-.947V2.08q0-.774-.009-.917c-.009-.138-.057-.219-.147-.242A.673.673,0,0,0,26.415.9c-.049,0-.073-.014-.073-.043s.035-.034.1-.034.156,0,.294.008l.268,0,.242,0c.13,0,.225-.008.285-.008s.091.011.091.034S27.605.9,27.562.9a.788.788,0,0,0-.134.013c-.1.018-.152.1-.16.247q-.009.143-.008.917v.762q0,.774.017.947c.012.127.07.2.173.212a1.672,1.672,0,0,0,.221.017c.045,0,.069.011.069.035s-.028.043-.082.043Q27.493,4.1,27.255,4.087Zm-2,0-.277,0-.243,0c-.135.006-.235.009-.3.009s-.091-.014-.091-.043.033-.033.1-.039q.065-.008.13-.013.1-.022.126-.238.021-.168.021-.921V2.461a.023.023,0,0,0-.026-.026H23.041a.023.023,0,0,0-.026.026v.381c0,.49.007.8.022.925.016.142.073.219.168.234a1.67,1.67,0,0,0,.22.017c.047,0,.07.011.07.035s-.029.043-.087.043q-.16,0-.4-.009l-.277,0-.247,0c-.135.006-.235.009-.3.009s-.087-.014-.087-.043.032-.033.1-.039q.065-.008.13-.013.1-.022.126-.238c.015-.112.021-.419.021-.921V2.08q0-.774-.009-.917a.237.237,0,0,0-.186-.247A.863.863,0,0,0,22.112.9c-.049,0-.073-.013-.073-.039s.03-.038.091-.038c.087,0,.2,0,.354.008l.269,0,.247,0c.138,0,.238-.008.3-.008s.091.013.091.038S23.362.9,23.31.9a.752.752,0,0,0-.126.013c-.1.018-.152.1-.16.247q-.01.143-.009.917v.091c0,.02.009.03.026.03h1.653q.025,0,.026-.03V2.08c0-.516,0-.822-.009-.917a.236.236,0,0,0-.186-.247A.862.862,0,0,0,24.357.9c-.049,0-.074-.013-.074-.039s.03-.038.091-.038c.087,0,.2,0,.355.008l.268,0,.246,0c.139,0,.238-.008.3-.008s.091.013.091.038S25.607.9,25.555.9a.751.751,0,0,0-.126.013c-.1.018-.151.1-.16.247q-.009.143-.009.917v.762c0,.49.007.8.021.925.017.142.074.219.169.234a1.67,1.67,0,0,0,.221.017c.047,0,.069.011.069.035s-.029.043-.087.043Q25.5,4.1,25.257,4.087Zm-15.867,0-.277,0-.242,0c-.135.006-.235.009-.3.009s-.091-.014-.091-.043.032-.033.1-.039q.065-.008.13-.013.1-.022.126-.238.021-.168.022-.921V2.461a.024.024,0,0,0-.026-.026H7.176a.023.023,0,0,0-.026.026v.381c0,.49.007.8.022.925.017.142.073.219.168.234a1.671,1.671,0,0,0,.221.017c.045,0,.069.011.069.035S7.6,4.1,7.544,4.1q-.16,0-.4-.009l-.276,0-.247,0c-.135.006-.235.009-.3.009s-.087-.014-.087-.043.031-.033.095-.039Q6.4,4.005,6.462,4q.1-.022.126-.238.021-.168.021-.921V2.08q0-.774-.008-.917A.237.237,0,0,0,6.415.916.863.863,0,0,0,6.246.9C6.2.9,6.173.891,6.173.864S6.2.826,6.264.826c.086,0,.2,0,.354.008l.269,0,.247,0c.138,0,.238-.008.3-.008s.091.013.091.038S7.5.9,7.444.9a.752.752,0,0,0-.126.013c-.1.018-.151.1-.16.247q-.009.143-.009.917v.091c0,.02.009.03.026.03H8.829c.017,0,.026-.01.026-.03V2.08q0-.774-.009-.917A.236.236,0,0,0,8.66.916.862.862,0,0,0,8.491.9C8.442.9,8.417.891,8.417.864s.03-.038.091-.038c.087,0,.2,0,.355.008l.268,0,.246,0c.139,0,.238-.008.3-.008s.091.013.091.038S9.741.9,9.689.9a.752.752,0,0,0-.126.013c-.1.018-.152.1-.16.247Q9.4,1.305,9.4,2.08v.762c0,.49.007.8.021.925.018.142.074.219.169.234a1.67,1.67,0,0,0,.221.017c.047,0,.07.011.07.035s-.029.043-.087.043C9.682,4.1,9.549,4.093,9.39,4.087Zm-4.3,0c-.086,0-.13-.013-.13-.034s.021-.036.061-.039.059-.047.039-.1L4.719,3a.044.044,0,0,0-.043-.03H3.712c-.018,0-.031.011-.039.035l-.234.618a.831.831,0,0,0-.065.264c0,.089.057.134.173.134h.065c.043,0,.065.011.065.035S3.652,4.1,3.6,4.1s-.124,0-.233-.009l-.225,0-.19,0c-.124.006-.23.009-.32.009-.055,0-.082-.014-.082-.043s.017-.035.052-.035a1.033,1.033,0,0,0,.134-.008.334.334,0,0,0,.225-.121,1,1,0,0,0,.143-.268L4.192.9C4.237.789,4.278.73,4.313.73s.067.046.108.138q.4,1,1.073,2.661c.121.285.247.442.381.472a.855.855,0,0,0,.182.017c.038,0,.056.011.056.035s-.014.029-.043.034a.844.844,0,0,1-.155.009C5.555,4.1,5.283,4.093,5.1,4.087ZM4.178,1.656,3.78,2.72c-.006.021,0,.03.018.03h.8c.02,0,.027-.008.022-.026l-.39-1.069q-.008-.038-.021-.038C4.193,1.618,4.184,1.63,4.178,1.656ZM64.355.89h0ZM53.9.89h0ZM18.544.89h0ZM59.3.795h0ZM65.6.411A.233.233,0,0,1,65.54.25.245.245,0,0,1,65.6.087.223.223,0,0,1,65.782,0a.248.248,0,0,1,.177.065.219.219,0,0,1,.069.169.272.272,0,0,1-.069.186.233.233,0,0,1-.177.074A.222.222,0,0,1,65.6.411Zm-10.451,0A.24.24,0,0,1,55.09.25a.252.252,0,0,1,.056-.164A.225.225,0,0,1,55.332,0a.248.248,0,0,1,.177.065.219.219,0,0,1,.069.169.272.272,0,0,1-.069.186.233.233,0,0,1-.177.074A.224.224,0,0,1,55.146.411Zm-13.819,0a.233.233,0,0,1-.057-.16.245.245,0,0,1,.057-.164A.223.223,0,0,1,41.512,0a.248.248,0,0,1,.177.065.219.219,0,0,1,.069.169.272.272,0,0,1-.069.186.233.233,0,0,1-.177.074A.223.223,0,0,1,41.326.411ZM34.872.289a.221.221,0,0,1,.052-.138.177.177,0,0,1,.148-.065c.136,0,.2.063.2.19a.22.22,0,0,1-.061.155.189.189,0,0,1-.147.061C34.937.493,34.872.425,34.872.289Zm-.912,0a.2.2,0,0,1,.052-.134.176.176,0,0,1,.147-.065c.136,0,.2.062.2.186A.22.22,0,0,1,34.3.432a.189.189,0,0,1-.147.061C34.024.493,33.96.425,33.96.289ZM26.81.411a.237.237,0,0,1-.057-.16A.249.249,0,0,1,26.81.087.224.224,0,0,1,27,0a.248.248,0,0,1,.177.065.22.22,0,0,1,.069.169.272.272,0,0,1-.069.186A.233.233,0,0,1,27,.493.223.223,0,0,1,26.81.411Z" transform="translate(0.52 26.499)" fill="#fff" stroke="rgba(0,0,0,0)" stroke-miterlimit="10" stroke-width="1"/>
        <path id="Union_2" data-name="Union 2" d="M44.9,23.012c-1.627-1.464-2.839-3.819-2.839-8.435V9.931c0-4.838,0-5.73-.064-6.748-.063-1.082-.319-1.592-1.371-1.815a6.631,6.631,0,0,0-1.245-.1c-.35,0-.542-.064-.542-.287s.223-.286.7-.286c1.69,0,3.7.1,4.657.1.766,0,2.775-.1,3.924-.1.479,0,.7.063.7.286s-.192.287-.51.287a4.858,4.858,0,0,0-.925.1c-.861.16-1.116.7-1.18,1.815-.064,1.018-.064,1.91-.064,6.748v4.456c0,4.616.925,6.557,2.488,7.83a5.913,5.913,0,0,0,3.987,1.306,6.255,6.255,0,0,0,4.4-1.719c1.754-1.751,1.85-4.616,1.85-7.894V9.931c0-4.838,0-5.73-.064-6.748-.064-1.082-.319-1.592-1.371-1.815a6.242,6.242,0,0,0-1.149-.1c-.351,0-.542-.064-.542-.287S55.965.7,56.411.7c1.627,0,3.636.1,3.669.1.382,0,2.392-.1,3.636-.1.446,0,.669.063.669.286s-.191.287-.574.287a4.845,4.845,0,0,0-.925.1c-.862.16-1.116.7-1.18,1.815-.064,1.018-.064,1.91-.064,6.748v3.406c0,3.533-.351,7.289-3.031,9.581a9.535,9.535,0,0,1-6.635,2.292C50.287,25.209,47.225,25.114,44.9,23.012ZM7.528,24.764c-.957-.064-1.914-.1-2.393-.1-.351,0-1.053,0-1.818.033-.734,0-1.563.064-2.2.064-.415,0-.638-.1-.638-.319,0-.159.128-.255.51-.255a5.208,5.208,0,0,0,1.149-.127c.637-.128.8-.828.925-1.751.16-1.337.16-3.852.16-6.78v-5.6c0-4.838,0-5.73-.064-6.748C3.094,2.1,2.839,1.591,1.786,1.368a6.627,6.627,0,0,0-1.244-.1C.191,1.273,0,1.209,0,.986S.223.7.7.7c1.691,0,3.7.1,4.338.1C6.6.795,7.847.7,8.931.7c5.774,0,6.795,3.088,6.795,4.775,0,2.61-1.5,4.17-3.254,5.571,2.616.891,5.806,3.151,5.806,6.874,0,3.407-2.648,6.939-8.517,6.939C9.377,24.858,8.453,24.8,7.528,24.764ZM7.049,12.445v7.544c0,2.1.1,2.642,1.116,3.056a5.767,5.767,0,0,0,2.329.382,3.711,3.711,0,0,0,3.86-4.075,7.575,7.575,0,0,0-3.094-6.334,4.589,4.589,0,0,0-2.648-.764c-.574-.033-.894-.033-1.371-.033C7.113,12.222,7.049,12.286,7.049,12.445ZM7.337,2.069c-.223.064-.287.191-.287.541v7.862c0,.255.1.318.223.35a7.86,7.86,0,0,0,1.5.1,3.246,3.246,0,0,0,2.3-.6,4.144,4.144,0,0,0,1.308-3.374C12.376,4.806,11.133,2,8.389,2A5.162,5.162,0,0,0,7.337,2.069ZM35.985,24.7c-.574-.033-.957-.033-.957-.255,0-.191.128-.255.447-.287a.518.518,0,0,0,.287-.732L33.21,16.678a.307.307,0,0,0-.318-.222H25.777c-.159,0-.223.064-.286.255l-1.722,4.552A6.14,6.14,0,0,0,23.29,23.2c0,.573.286.986,1.276.986h.479c.382,0,.479.064.479.255,0,.255-.192.319-.543.319-1.021,0-2.393-.1-3.381-.1-.351,0-2.105.1-3.764.1-.415,0-.606-.064-.606-.319,0-.191.127-.255.382-.255a9.9,9.9,0,0,0,.989-.063c1.467-.192,2.073-1.274,2.711-2.865L29.319,1.273C29.7.35,29.892,0,30.211,0c.287,0,.479.286.8,1.018.766,1.751,5.869,14.738,7.911,19.559,1.213,2.852,2.137,3.3,2.807,3.487a7.039,7.039,0,0,0,1.34.127c.255,0,.415.032.415.255,0,.255-.287.319-1.467.319C40.865,24.764,38.537,24.764,35.985,24.7ZM29.222,6.811l-2.934,7.83c-.032.128,0,.223.128.223h5.869c.159,0,.191-.1.159-.191l-2.87-7.862c-.032-.128-.065-.286-.16-.286S29.255,6.684,29.222,6.811Z" transform="translate(0 0)" fill="#fff" stroke="rgba(0,0,0,0)" stroke-miterlimit="10" stroke-width="1"/>
      </g>
    </g>
  </g>
</svg>
