<svg xmlns="http://www.w3.org/2000/svg" width="144" height="28" viewBox="0 0 144 28">
  <g id="Icrypex_Logo_v2_Light" transform="translate(-254.727 -276.309)">
    <rect id="Rectangle_67" data-name="Rectangle 67" width="144" height="28" transform="translate(254.727 276.309)" opacity="0"/>
    <g id="Type" transform="translate(256.727 277.809)">
      <path id="x_02" d="M696.508,277.984a3.875,3.875,0,0,0-3.16,1.629L689.2,285.4l2.377,3.318,7.678-10.736Z" transform="translate(-559.557 -277.806)" fill="#357ce1"/>
      <path id="x_01" d="M671.307,301.986,654.3,278.237a.6.6,0,0,0-.488-.251h-3.846a.3.3,0,0,0-.242.481l8.212,11.462a.51.51,0,0,1,0,.594l-8.212,11.462a.3.3,0,0,0,.07.424.3.3,0,0,0,.173.057h3.857a.6.6,0,0,0,.488-.251l5.964-8.335a.3.3,0,0,1,.484,0l5.965,8.335a.6.6,0,0,0,.488.251h3.856a.3.3,0,0,0,.243-.481Z" transform="translate(-531.887 -277.807)" fill="#fff"/>
      <path id="e" d="M599.877,298.914a.305.305,0,0,0-.3-.311H587.248a.292.292,0,0,1-.286-.3v-5.831a.3.3,0,0,1,.3-.3H597.6a.3.3,0,0,0,.3-.3l-.01-3.268a.3.3,0,0,0-.3-.3H587.26a.316.316,0,0,1-.3-.312v-5.828a.3.3,0,0,1,.3-.3h12.324a.3.3,0,0,0,.3-.3v-3.258a.305.305,0,0,0-.3-.311H583.4a.306.306,0,0,0-.3.309v23.86a.3.3,0,0,0,.3.3h16.184a.3.3,0,0,0,.3-.3Z" transform="translate(-485.306 -277.822)" fill="#fff"/>
      <path id="p" d="M522.645,277.993h-9.387a.306.306,0,0,0-.3.309v23.86l.01.009a.3.3,0,0,0,.3.3h3.261a.3.3,0,0,0,.3-.3v-7.917a.269.269,0,0,1,.27-.27c1.984.01,4.7.011,5.737-.028,3.559-.135,8.165-3.215,7.976-8.282A8.106,8.106,0,0,0,522.645,277.993Zm.189,12.092H517.1a.27.27,0,0,1-.27-.27v-7.68a.27.27,0,0,1,.27-.27h5.619a4.186,4.186,0,0,1,4.2,3.65A4.112,4.112,0,0,1,522.834,290.085Z" transform="translate(-436.219 -277.812)" fill="#fff"/>
      <path id="y" d="M445.675,278.3l-6.544,11.334a.27.27,0,0,1-.468,0L432.119,278.3a.6.6,0,0,0-.52-.3H428a.3.3,0,0,0-.26.45l9.1,15.762a.9.9,0,0,1,.121.45v7.508a.3.3,0,0,0,.3.3h3.266a.3.3,0,0,0,.3-.3v-7.5a.9.9,0,0,1,.121-.45l9.1-15.769a.3.3,0,0,0-.26-.45h-3.6A.6.6,0,0,0,445.675,278.3Z" transform="translate(-376.552 -277.818)" fill="#fff"/>
      <path id="r" d="M379.724,285.3a4.111,4.111,0,0,1-4.056,4.787h-3.106a.24.24,0,0,0-.208.36l2.046,3.544,4.753,8.232a.5.5,0,0,0,.43.248h3.826a.2.2,0,0,0,.172-.3l-4.984-8.633a.239.239,0,0,1,.111-.338,7.945,7.945,0,0,0,4.923-7.778,8.094,8.094,0,0,0-8.134-7.429h-9.4a.306.306,0,0,0-.3.309v23.86l.01.009a.3.3,0,0,0,.3.3h3.261a.3.3,0,0,0,.3-.3l0-20.009a.3.3,0,0,1,.3-.3h5.6A4.174,4.174,0,0,1,379.724,285.3Z" transform="translate(-333.228 -277.812)" fill="#fff"/>
      <path id="c" d="M293.866,298.377a8.562,8.562,0,0,1-.138-17.123,8.475,8.475,0,0,1,6.639,2.981.312.312,0,0,0,.4.047l2.723-1.816a.3.3,0,0,0,.085-.413l-.015-.02a12.418,12.418,0,1,0,0,15.555.3.3,0,0,0-.049-.419l-.021-.014-2.723-1.816a.312.312,0,0,0-.4.047,8.544,8.544,0,0,1-6.5,3" transform="translate(-274.213 -277.39)" fill="#fff"/>
      <path id="i" d="M257.3,302.174V278a3.868,3.868,0,0,1,3.86,3.866v20.306a.3.3,0,0,1-.3.3H257.6a.3.3,0,0,1-.3-.3" transform="translate(-257.302 -277.82)" fill="#fff"/>
    </g>
  </g>
</svg>
